<svg width="97" height="98" viewBox="0 0 97 98" fill="none" xmlns="http://www.w3.org/2000/svg">
<g id="Vector" filter="url(#filter0_d_31_433)">
<path d="M72.1199 27.6393C61.8152 27.6393 53.454 36.0394 53.454 46.4157C53.454 56.7918 61.8155 65.2109 72.1199 65.2109C82.4247 65.2109 90.7671 56.7915 90.7671 46.4157C90.7671 36.0396 82.4249 27.6393 72.1199 27.6393ZM83.0984 50.17H75.8298V57.489H68.3918V50.17H61.1231V42.6804H68.3918V35.3614H75.8298V42.6804H83.0984V50.17Z" fill="black"/>
<path d="M49.6753 58.4889C50.7296 57.1018 51.7647 55.6837 52.7613 54.2385C51.7878 51.8285 51.2722 49.1977 51.2722 46.4235C51.2722 36.8069 57.7136 28.6896 66.4904 26.2099C66.6828 25.6442 66.8521 25.0747 67.0522 24.5206C67.714 22.3548 67.4832 20.2199 66.3596 18.2439L59.4872 6.25201L59.164 7.96073C56.0972 23.8507 50.3485 37.6558 41.8328 49.4264C44.2186 52.5997 46.8318 55.614 49.6753 58.4889Z" fill="black"/>
<path d="M26.1757 17.1511C35.1913 12.6761 45.7578 12.6373 54.7809 17.0194C55.6467 13.912 56.3778 10.7427 57.0011 7.53452L57.4321 5.33769C46.5698 0.847135 34.3482 0.889687 23.5204 5.45393L23.9129 7.53847C24.5555 10.8357 25.31 14.0476 26.1757 17.1511Z" fill="black"/>
<path d="M7.1562 78.8424L2 81.5971L9.22631 83.9838L7.43704 91.9886L12.6125 89.257C22.6128 83.945 31.367 77.6877 38.8978 70.5045C36.112 67.7225 33.5107 64.8166 31.0481 61.779C24.2566 68.3153 16.3064 74.003 7.1562 78.8424Z" fill="black"/>
<path d="M73.7591 78.8424C45.0426 63.612 27.9459 40.0081 21.7814 7.9653L21.4389 6.25658L14.582 18.2405C13.4353 20.2127 13.2045 22.3398 13.8894 24.5173C22.7664 52.9724 40.8781 74.7046 68.3021 89.2685L73.4776 92L71.7075 83.9952L78.9338 81.6085L73.7591 78.8424Z" fill="black"/>
</g>
<defs>
<filter id="filter0_d_31_433" x="0" y="0" width="96.7671" height="98" filterUnits="userSpaceOnUse" color-interpolation-filters="sRGB">
<feFlood flood-opacity="0" result="BackgroundImageFix"/>
<feColorMatrix in="SourceAlpha" type="matrix" values="0 0 0 0 0 0 0 0 0 0 0 0 0 0 0 0 0 0 127 0" result="hardAlpha"/>
<feOffset dx="2" dy="2"/>
<feGaussianBlur stdDeviation="2"/>
<feComposite in2="hardAlpha" operator="out"/>
<feColorMatrix type="matrix" values="0 0 0 0 0 0 0 0 0 0 0 0 0 0 0 0 0 0 0.45 0"/>
<feBlend mode="normal" in2="BackgroundImageFix" result="effect1_dropShadow_31_433"/>
<feBlend mode="normal" in="SourceGraphic" in2="effect1_dropShadow_31_433" result="shape"/>
</filter>
</defs>
</svg>
