<svg width="86" height="98" viewBox="0 0 86 98" fill="none" xmlns="http://www.w3.org/2000/svg">
<g id="Vector" filter="url(#filter0_d_31_429)">
<path d="M79.3684 2H52.5263C52.5263 2 32.5025 16.9637 21.1661 25.6842H25.6842V28.8421H17.061L14.9959 30.4309C19.1805 30.6605 22.5263 34.8176 22.5263 39.8947C22.5266 41.2805 22.8917 42.6418 23.5849 43.8418C24.2781 45.0418 25.2749 46.0381 26.4752 46.7308C27.6755 47.4234 29.0369 47.7879 30.4227 47.7876C31.8085 47.7873 33.1698 47.4222 34.3698 46.7291C35.5698 46.0359 36.5662 45.0391 37.2589 43.8389C37.9515 42.6386 38.3161 41.2772 38.3158 39.8914C38.3155 38.5056 37.9505 37.1443 37.2574 35.9443C36.5643 34.7442 35.5675 33.7478 34.3672 33.0551L35.9486 30.3218C36.0099 30.3573 36.0699 30.3944 36.1305 30.4311L36.7491 25.4882C36.7982 25.0951 36.9934 24.7348 37.2958 24.4789L57.8221 7.11046L59.8621 9.52112L39.8061 26.4916L39.0001 32.9338C39.9563 34.1115 40.6598 35.4735 41.0667 36.935C41.4735 38.3965 41.575 39.9262 41.3649 41.4286C41.1547 42.9311 40.6374 44.3741 39.8452 45.6679C39.0529 46.9617 38.0028 48.0785 36.76 48.9486C35.5173 49.8188 34.1087 50.4237 32.622 50.7257C31.1353 51.0277 29.6023 51.0202 28.1186 50.7039C26.6349 50.3875 25.2322 49.769 23.998 48.8868C22.7638 48.0047 21.7245 46.8778 20.9448 45.5764C19.503 47.8773 17.2098 49.3684 14.6316 49.3684C10.1316 49.3684 6.73684 45.2955 6.73684 39.8947C6.73684 36.5701 6.73684 32.8017 12.0897 28.6826C18.8399 23.4883 40.6361 6.72441 46.7786 2H31.1849L11.2236 27.2142C5.26218 34.7663 2.01353 44.1037 2 53.7251V92H20.3377C17.5376 83.5493 9.89474 60.2132 9.89474 57.2632C9.89474 53.0574 13.5838 49.3684 17.7895 49.3684C18.8432 49.3677 19.8864 49.5783 20.8574 49.9877C21.8284 50.3971 22.7074 50.997 23.4425 51.752C23.4654 51.7418 23.4891 51.7333 23.5124 51.7232C23.5927 51.6885 23.6742 51.6559 23.7557 51.6234C23.8195 51.5977 23.883 51.5716 23.9474 51.5476C24.0403 51.5126 24.1345 51.4807 24.2288 51.4489C24.2839 51.4291 24.3388 51.4104 24.3942 51.3928C24.5002 51.3591 24.6076 51.3285 24.7151 51.2985C24.7607 51.2857 24.8059 51.2717 24.8517 51.259C24.9701 51.2276 25.0913 51.1998 25.2123 51.1732C25.248 51.1653 25.2834 51.1558 25.3193 51.1483C25.4497 51.1211 25.5818 51.0976 25.714 51.0757C25.7414 51.0711 25.7683 51.0654 25.7957 51.0611C25.9339 51.0395 26.073 51.0216 26.2128 51.0066C26.2353 51.004 26.2576 51.0003 26.2803 50.9979C26.4212 50.9833 26.5633 50.973 26.706 50.9647C26.7275 50.9634 26.7486 50.961 26.7701 50.9598C26.9336 50.9515 27.0979 50.9474 27.2632 50.9474C28.5075 50.9466 29.7397 51.1912 30.8895 51.667C32.0392 52.1428 33.0839 52.8406 33.9637 53.7205C34.8436 54.6003 35.5414 55.645 36.0172 56.7947C36.4931 57.9445 36.7376 59.1767 36.7368 60.4211C36.7368 60.5714 36.7323 60.7211 36.7254 60.8703C36.7236 60.9088 36.7209 60.947 36.7185 60.9853C36.7118 61.103 36.7029 61.2201 36.6918 61.3366C36.6887 61.3686 36.6855 61.4008 36.6822 61.4328C36.5051 63.1293 35.8686 64.7454 34.8413 66.107L34.8376 66.1043C34.1307 67.0433 33.2565 67.8438 32.2589 68.4654L33.498 92H46.1888C45.9454 82.3991 43.599 72.9685 39.3151 64.373L38.4818 62.7062C38.3721 62.4869 38.3151 62.2451 38.3151 62C38.3151 61.7549 38.3721 61.5131 38.4818 61.2938L41.6397 54.978C41.7415 54.7743 41.8863 54.5951 42.0639 54.4526C42.2416 54.3101 42.448 54.2077 42.6689 54.1524L79.3684 44.9778V2Z" fill="black"/>
<path d="M14.0156 31.1855C9.89474 34.3562 9.89474 36.8004 9.89474 39.8947C9.89474 43.5543 11.887 46.2105 14.6316 46.2105C17.2434 46.2105 19.3684 43.3773 19.3684 39.8947C19.3684 36.4122 17.2434 33.5789 14.6316 33.5789V30.7114C14.4145 30.8782 14.2084 31.0368 14.0156 31.1855Z" fill="black"/>
<path d="M20.7419 53.5589C19.9034 52.8898 18.8623 52.5257 17.7895 52.5263C15.1216 52.5263 13.0526 55.0724 13.0526 57.2632C13.0921 59.4342 19.4339 79.2632 23.6651 92H30.3362L29.1622 69.7035C28.5373 69.831 27.901 69.8951 27.2632 69.8947V66.7368C28.2735 66.7364 29.2689 66.4935 30.1659 66.0284C31.0628 65.5634 31.8349 64.8898 32.4174 64.0643C32.4557 64.0102 32.4938 63.9557 32.5303 63.9007C32.5737 63.8351 32.6168 63.7692 32.6578 63.7019C32.7062 63.623 32.752 63.543 32.796 63.4623C32.84 63.3816 32.886 63.2941 32.9282 63.2087C32.9515 63.1615 32.9736 63.1141 32.9955 63.0666C33.0503 62.9489 33.1012 62.8293 33.1483 62.7078C33.1696 62.6529 33.1911 62.5982 33.2109 62.5428C33.2367 62.4705 33.2616 62.3979 33.2849 62.3243C33.3192 62.2153 33.3516 62.1058 33.38 61.9949C33.395 61.9368 33.4074 61.8778 33.4207 61.819C33.4416 61.7265 33.4601 61.6335 33.4773 61.5397C33.4856 61.4934 33.4949 61.4474 33.5022 61.4016C33.5234 61.265 33.5399 61.1273 33.5519 60.9885C33.5553 60.9502 33.558 60.9115 33.5606 60.8728C33.5711 60.7234 33.5786 60.5734 33.5786 60.422C33.5767 58.7476 32.9107 57.1422 31.7266 55.9582C30.5426 54.7741 28.9372 54.1081 27.2628 54.1063C27.1278 54.1063 26.9936 54.112 26.8595 54.1205C26.8242 54.1226 26.7891 54.1258 26.7539 54.1286C26.6437 54.1375 26.5337 54.1492 26.4241 54.1637C26.3993 54.1668 26.3742 54.1696 26.3495 54.1732C26.2155 54.1926 26.0822 54.2164 25.9499 54.2444C25.9301 54.2486 25.912 54.2533 25.893 54.2576C25.7784 54.2832 25.6647 54.3118 25.552 54.3437C25.5239 54.3516 25.4959 54.3593 25.4681 54.3676C25.3388 54.4059 25.2103 54.4465 25.0838 54.4939L25.0736 54.498C24.9551 54.5422 24.8367 54.5914 24.7197 54.6429C24.6861 54.6575 24.653 54.6727 24.6198 54.6881C24.5176 54.7353 24.4165 54.7853 24.3166 54.8379C24.2979 54.848 24.2788 54.8576 24.2602 54.8669C24.1497 54.9261 24.0413 54.9913 23.9341 55.058C23.0213 55.6241 22.268 56.4138 21.7453 57.3522C21.2227 58.2907 20.9481 59.3469 20.9474 60.4211H17.7895C17.7891 59.1366 18.0508 57.8656 18.5584 56.6857C19.0661 55.5058 19.809 54.4419 20.7419 53.5589Z" fill="black"/>
</g>
<defs>
<filter id="filter0_d_31_429" x="0" y="0" width="85.3684" height="98" filterUnits="userSpaceOnUse" color-interpolation-filters="sRGB">
<feFlood flood-opacity="0" result="BackgroundImageFix"/>
<feColorMatrix in="SourceAlpha" type="matrix" values="0 0 0 0 0 0 0 0 0 0 0 0 0 0 0 0 0 0 127 0" result="hardAlpha"/>
<feOffset dx="2" dy="2"/>
<feGaussianBlur stdDeviation="2"/>
<feComposite in2="hardAlpha" operator="out"/>
<feColorMatrix type="matrix" values="0 0 0 0 0 0 0 0 0 0 0 0 0 0 0 0 0 0 0.45 0"/>
<feBlend mode="normal" in2="BackgroundImageFix" result="effect1_dropShadow_31_429"/>
<feBlend mode="normal" in="SourceGraphic" in2="effect1_dropShadow_31_429" result="shape"/>
</filter>
</defs>
</svg>
