<svg width="33" height="32" viewBox="0 0 33 32" fill="none" xmlns="http://www.w3.org/2000/svg">
<g id="rivet-icons:magnifying-glass" clip-path="url(#clip0_27_405)">
<path id="Vector" d="M14.5633 4.21784C11.9118 4.21784 9.36887 5.24188 7.49398 7.06469C5.61909 8.8875 4.56579 11.3598 4.56579 13.9376C4.56579 16.5154 5.61909 18.9877 7.49398 20.8105C9.36887 22.6333 11.9118 23.6574 14.5633 23.6574C17.2148 23.6574 19.7576 22.6333 21.6325 20.8105C23.5074 18.9877 24.5607 16.5154 24.5607 13.9376C24.5607 11.3598 23.5074 8.8875 21.6325 7.06469C19.7576 5.24188 17.2148 4.21784 14.5633 4.21784ZM0.566803 13.9376C0.566807 11.7823 1.09342 9.65775 2.10328 7.73902C3.11313 5.82029 4.57735 4.16222 6.37534 2.90135C8.17334 1.64048 10.2537 0.812873 12.4451 0.486689C14.6365 0.160506 16.8762 0.345072 18.9798 1.02519C21.0835 1.70531 22.9909 2.86152 24.545 4.39862C26.099 5.93572 27.2553 7.80973 27.9186 9.86634C28.5819 11.9229 28.7332 14.1033 28.36 16.2279C27.9869 18.3525 27.1 20.3605 25.7724 22.0866L31.9729 28.1129L29.1456 30.8636L22.9471 24.8373C20.8667 26.3504 18.3941 27.2706 15.8063 27.4949C13.2184 27.7192 10.6174 27.2388 8.29446 26.1075C5.97151 24.9762 4.01829 23.2386 2.65348 21.0892C1.28867 18.9398 0.566151 16.4636 0.566803 13.9376Z" fill="#00365A"/>
</g>
<defs>
<clipPath id="clip0_27_405">
<rect width="31.9919" height="31.1032" fill="white" transform="translate(0.566803 0.329956)"/>
</clipPath>
</defs>
</svg>
